<svg xmlns="http://www.w3.org/2000/svg" version="1.1" x="0" y="0" width="1200.8" height="350" viewBox="0 0 1200.8 350" enable-background="new 0 0 1200.798 350" xml:space="preserve"><script xmlns=""/><polygon opacity="0.3" fill-rule="evenodd" clip-rule="evenodd" fill="#5B91B7" stroke="#AFAFAF" stroke-miterlimit="10" points=" 689.9 236.2 743.6 233.9 743.6 257.8 689.9 257.2 689.9 252 689.9 239.1 689.9 236.2 "/><polygon opacity="0.3" fill-rule="evenodd" clip-rule="evenodd" fill="#A1A3A6" stroke="#AFAFAF" stroke-miterlimit="10" points=" 743.6 233.9 689.9 236.2 689.9 239.1 643.9 234.3 747.7 229.5 816.1 241.3 783.7 242.2 783.7 240 743.6 233.9 "/><polygon opacity="0.3" fill-rule="evenodd" clip-rule="evenodd" fill="#A1A3A6" stroke="#AFAFAF" stroke-miterlimit="10" points=" 783.7 230.1 816.1 229.1 846.6 242 793.6 242.6 783.7 242.3 783.7 230.1 "/><polygon opacity="0.3" fill-rule="evenodd" clip-rule="evenodd" fill="#83CBEB" stroke="#AFAFAF" stroke-miterlimit="10" points=" 743.6 216.3 783.7 222.3 783.7 224.6 783.7 236.8 783.7 240.6 743.6 240.2 743.6 216.3 "/><polygon opacity="0.3" fill-rule="evenodd" clip-rule="evenodd" fill="#EDEDEE" stroke="#AFAFAF" stroke-miterlimit="10" points=" 846.6 254.1 816.1 241.3 824.3 240.1 855.1 254 846.6 254.1 "/><polygon opacity="0.3" fill-rule="evenodd" clip-rule="evenodd" fill="#83CBEB" stroke="#AFAFAF" stroke-miterlimit="10" points=" 855.1 254 824.3 240.1 861.7 234.7 861.7 253.9 855.1 254 "/><polygon opacity="0.3" fill-rule="evenodd" clip-rule="evenodd" fill="#A1A3A6" stroke="#AFAFAF" stroke-miterlimit="10" points=" 872.9 234.7 835.4 240.1 827.2 241.3 758.8 229.5 953 196.7 964.7 221.5 901.1 230.7 884.4 233 872.9 234.7 "/><polygon opacity="0.3" fill-rule="evenodd" clip-rule="evenodd" fill="#A1A3A6" stroke="#AFAFAF" stroke-miterlimit="10" points=" 873.3 233 889.9 230.7 979 236.6 979 229.6 979 227.8 979.3 224.9 979.7 223.8 979.7 239 979.7 252.9 979.2 253 979.2 240.7 979.3 240.5 873.3 233 "/><polygon opacity="0.3" fill-rule="evenodd" clip-rule="evenodd" fill="#FFFFFF" stroke="#AFAFAF" stroke-miterlimit="10" points=" 979.7 223.8 979.3 224.9 960.5 225.7 953.6 221.5 981.1 220.3 981.1 223.7 979.7 223.8 "/><polygon opacity="0.3" fill-rule="evenodd" clip-rule="evenodd" fill="#5B91B7" stroke="#AFAFAF" stroke-miterlimit="10" points=" 979.7 223.8 981.1 223.7 981.1 239 979.7 239 979.7 223.8 "/><polygon opacity="0.3" fill-rule="evenodd" clip-rule="evenodd" fill="#A1A3A6" stroke="#AFAFAF" stroke-miterlimit="10" points=" 747.7 229.5 643.9 234.3 643.9 228.3 747.7 222.6 747.7 229.5 "/><polygon opacity="0.3" fill-rule="evenodd" clip-rule="evenodd" fill="#A1A3A6" stroke="#AFAFAF" stroke-miterlimit="10" points=" 747.7 229.5 747.7 222.6 941.9 188.1 941.9 196.7 747.7 229.5 "/><polygon opacity="0.3" fill-rule="evenodd" clip-rule="evenodd" fill="#A1A3A6" stroke="#AFAFAF" stroke-miterlimit="10" points=" 941.9 196.7 941.9 188.1 1158.9 171.2 1158.9 181.5 941.9 196.7 "/><polygon opacity="0.3" fill-rule="evenodd" clip-rule="evenodd" fill="#5B91B7" stroke="#AFAFAF" stroke-miterlimit="10" points=" 763.7 198.9 659.9 204.6 659.9 164.2 763.7 152.8 763.7 198.9 "/><polygon opacity="0.3" fill-rule="evenodd" clip-rule="evenodd" fill="#FFFFFF" stroke="#AFAFAF" stroke-miterlimit="10" points=" 960.5 225.7 979.3 224.9 979 227.8 979 229.6 962.1 230.2 960.5 225.7 "/><polygon opacity="0.3" fill-rule="evenodd" clip-rule="evenodd" fill="#5B91B7" stroke="#AFAFAF" stroke-miterlimit="10" points=" 987.8 195 793.6 229.5 793.6 183.4 987.8 138.3 987.8 195 "/><polygon opacity="0.3" fill-rule="evenodd" clip-rule="evenodd" fill="#A1A3A6" stroke="#AFAFAF" stroke-miterlimit="10" points=" 981.1 220.3 953.6 221.5 941.9 196.7 1158.9 181.5 1087.6 215.4 1087.6 194.9 982.6 201.4 981.1 215.8 981.1 220.3 "/><polygon opacity="0.3" fill-rule="evenodd" clip-rule="evenodd" fill="#83CBEB" stroke="#AFAFAF" stroke-miterlimit="10" points=" 981.1 215.8 982.6 201.4 982.6 268.5 981.1 268.5 981.1 259 981.1 252.9 981.1 239 981.1 223.7 981.1 220.3 981.1 215.8 "/><polygon opacity="0.3" fill-rule="evenodd" clip-rule="evenodd" fill="#5B91B7" stroke="#AFAFAF" stroke-miterlimit="10" points=" 981.1 239 981.1 252.9 979.7 252.9 979.7 239 981.1 239 "/><polygon opacity="0.3" fill-rule="evenodd" clip-rule="evenodd" fill="#5B91B7" stroke="#AFAFAF" stroke-miterlimit="10" points=" 982.6 201.4 1087.6 194.9 1087.6 215.4 1087.6 243.8 1087.6 248.1 1087.6 249.8 1087.6 257.1 1087.6 268.5 1019.2 268.5 1019 268.5 1018.8 268.5 1018.8 268.5 1018.2 268.5 1018 268.5 1017.6 268.5 1017.5 268.5 1017.4 268.5 1016.9 268.5 1016.8 268.5 1016.6 268.5 1016.5 268.5 1016.5 268.5 1016.4 268.5 1016.4 268.5 1016.3 268.5 1016.1 268.5 1015.9 268.5 1015.7 268.5 1015.5 268.5 1015.4 268.5 982.6 268.5 982.6 201.4 "/><polygon opacity="0.3" fill-rule="evenodd" clip-rule="evenodd" fill="#A5B03F" stroke="#AFAFAF" stroke-miterlimit="10" points=" 1028.2 268.5 1028.6 268.5 1028.6 268.5 1028.7 268.5 1029 268.5 1029.1 268.5 1029.5 268.5 1029.6 268.5 1029.7 268.5 1029.8 268.5 1079 268.5 1158.9 268.5 1158.9 293.1 971.9 284.2 971.9 268.5 1002.4 268.5 1003.5 268.5 1027.1 268.5 1027.2 268.5 1027.3 268.5 1027.5 268.5 1027.6 268.5 1027.7 268.5 1027.8 268.5 1027.8 268.5 1027.9 268.5 1027.9 268.5 1028 268.5 1028.1 268.5 1028.2 268.5 "/><polygon opacity="0.3" fill-rule="evenodd" clip-rule="evenodd" fill="#A5B03F" stroke="#AFAFAF" stroke-miterlimit="10" points=" 971.9 284.2 772.2 284.3 772.2 268.5 832.6 268.5 954.1 268.5 971.9 268.5 971.9 284.2 "/><polygon opacity="0.3" fill-rule="evenodd" clip-rule="evenodd" fill="#DAE241" stroke="#AFAFAF" stroke-miterlimit="10" points=" 772.2 284.3 545 295.1 545 268.5 685.3 268.5 772.2 268.5 772.2 284.3 "/><polygon opacity="0.3" fill-rule="evenodd" clip-rule="evenodd" fill="#5B91B7" stroke="#AFAFAF" stroke-miterlimit="10" points=" 1100.8 128.5 883.8 145.4 883.8 88.7 1100.8 59.9 1100.8 128.5 "/><polygon opacity="0.3" fill-rule="evenodd" clip-rule="evenodd" fill="#C2C93C" stroke="#AFAFAF" stroke-miterlimit="10" points=" 743.6 257.8 783.7 258.3 793.6 258.4 810.2 258.5 810.2 268.5 754.5 268.5 674.4 268.5 674.4 257.1 689.9 257.2 743.6 257.8 "/><polygon opacity="0.3" fill-rule="evenodd" clip-rule="evenodd" fill="#B0B93C" stroke="#AFAFAF" stroke-miterlimit="10" points=" 981.1 268.5 938.7 268.5 922.2 268.5 922.2 258.7 946.2 258.8 981.1 259 981.1 268.5 "/><polygon opacity="0.3" fill-rule="evenodd" clip-rule="evenodd" fill="#D1D742" stroke="#AFAFAF" stroke-miterlimit="10" points=" 793.6 258.4 783.7 258.3 783.7 254.5 793.6 254.7 793.6 258.4 "/><polygon opacity="0.3" fill-rule="evenodd" clip-rule="evenodd" fill="#D3DA41" stroke="#AFAFAF" stroke-miterlimit="10" points=" 674.4 268.5 545 268.5 545 254.7 670.7 257 674.4 257.1 674.4 268.5 "/><polygon opacity="0.3" fill-rule="evenodd" clip-rule="evenodd" fill="#5B91B7" stroke="#AFAFAF" stroke-miterlimit="10" points=" 861.7 234.7 873.3 233 979.3 240.5 979.2 240.7 979.2 253 946.2 253.8 879.2 253.7 861.7 253.9 861.7 234.7 "/><polygon opacity="0.3" fill-rule="evenodd" clip-rule="evenodd" fill="#A5B03F" stroke="#AFAFAF" stroke-miterlimit="10" points=" 946.2 258.8 922.2 258.7 879.2 258.6 879.2 253.7 946.2 253.8 946.2 258.8 "/><polygon opacity="0.3" fill-rule="evenodd" clip-rule="evenodd" fill="#D1D742" stroke="#AFAFAF" stroke-miterlimit="10" points=" 689.9 257.2 674.4 257.1 670.7 257 670.7 251.5 689.9 252 689.9 257.2 "/><polygon opacity="0.3" fill-rule="evenodd" clip-rule="evenodd" fill="#CAD13F" stroke="#AFAFAF" stroke-miterlimit="10" points=" 670.7 257 545 254.7 545 248.9 670.7 251.5 670.7 257 "/><polygon opacity="0.3" fill-rule="evenodd" clip-rule="evenodd" fill="#A5B03F" stroke="#AFAFAF" stroke-miterlimit="10" points=" 921.4 236.3 921.4 246.1 809.4 246.1 809.4 236.2 878.3 236.3 921.4 236.3 "/><polygon opacity="0.3" fill-rule="evenodd" clip-rule="evenodd" fill="#A5B03F" stroke="#AFAFAF" stroke-miterlimit="10" points=" 879.2 258.6 810.2 258.5 793.6 258.4 793.6 254.7 846.6 254.1 855.1 254 861.7 253.9 879.2 253.7 879.2 258.6 "/><polygon opacity="0.3" fill-rule="evenodd" clip-rule="evenodd" fill="#A5B03F" stroke="#AFAFAF" stroke-miterlimit="10" points=" 1160.3 247 1178.1 246.5 1178.1 254.2 1160.3 254.7 1160.3 247 "/><polygon opacity="0.3" fill-rule="evenodd" clip-rule="evenodd" fill="#A5B03F" stroke="#AFAFAF" stroke-miterlimit="10" points=" 946.2 253.8 979.2 253 979.7 252.9 981.1 252.9 981.1 259 946.2 258.8 946.2 253.8 "/><polygon opacity="0.3" fill-rule="evenodd" clip-rule="evenodd" fill="#A5B03F" stroke="#AFAFAF" stroke-miterlimit="10" points=" 1160.3 247 1160.3 254.7 1070.5 257.1 1070.5 249.8 1087.2 249.3 1130.7 247.9 1160.3 247 "/><polygon opacity="0.3" fill-rule="evenodd" clip-rule="evenodd" fill="#A5B03F" stroke="#AFAFAF" stroke-miterlimit="10" points=" 1070.5 257.1 1160.3 254.7 1178.1 254.2 1178.1 268.5 1070.5 268.5 1070.5 257.1 "/><polygon opacity="0.3" fill-rule="evenodd" clip-rule="evenodd" fill="#5B91B7" stroke="#AFAFAF" stroke-miterlimit="10" points=" 1104.8 249.3 1087.6 249.8 1087.6 248.1 1104.8 249.3 "/><polygon opacity="0.3" fill-rule="evenodd" clip-rule="evenodd" fill="#A1A3A6" stroke="#AFAFAF" stroke-miterlimit="10" points=" 1149.7 247.9 1104.8 249.3 1087.6 248.1 1087.6 243.8 1149.7 247.9 "/><polygon opacity="0.3" fill-rule="evenodd" clip-rule="evenodd" fill="#A1A3A6" stroke="#AFAFAF" stroke-miterlimit="10" points=" 747.7 176.5 643.9 187.9 643.9 181.8 747.7 169.6 747.7 176.5 "/><polygon opacity="0.3" fill-rule="evenodd" clip-rule="evenodd" fill="#A1A3A6" stroke="#AFAFAF" stroke-miterlimit="10" points=" 747.7 176.5 747.7 169.6 941.9 122.8 941.9 131.4 747.7 176.5 "/><polygon opacity="0.3" fill-rule="evenodd" clip-rule="evenodd" fill="#A1A3A6" stroke="#AFAFAF" stroke-miterlimit="10" points=" 1158.9 102.6 941.9 131.4 941.9 122.8 1158.9 92.3 1158.9 102.6 "/><path opacity="0.3" fill="none" stroke="#AFAFAF" stroke-width="0.4" stroke-miterlimit="10" d="M545 295.1l199.2-10.8M744.2 284.3l175.2-0.2M919.4 284.2l247.3 9M994.3 268.5h0.1M810.7 240.1l29.3 13.9M831.9 254.1l-29-12.9M802.9 241.3l-30.8 1M639.1 228.3l98.7-5.7M802.9 241.3l-65.1-11.8M639.1 234.3l43.7 4.8M737.8 229.5l-98.7 4.8M639.1 234.3v-6.1M737.8 222.6v6.9M933.6 221.5l6.6 4.2M940.2 225.7l17.8-0.8M959.8 220.3l-26.2 1.2M737.8 222.6l184.8-34.5M933.6 221.5l-11.1-24.9M922.5 196.7l-184.8 32.8M922.5 188.1v8.6M941.8 230.2l16.1-0.6M940.2 225.7l1.5 4.5M922.5 188.1l206.4-16.9M1061.1 215.4l67.8-33.9M1128.9 181.5l-206.4 15.1M1128.9 181.5v-10.3M737.8 176.5l-98.7 11.4M737.8 169.6v6.9M737.8 169.6l-98.7 12.2M639.1 181.8v6.1M1128.9 102.6l-206.4 28.8M1128.9 102.6V92.3M1128.9 92.3L922.5 122.8M922.5 122.8v8.6M922.5 131.4l-184.8 45.1M922.5 122.8l-184.8 46.7M958 240.5l-100.8-7.4M1077.5 249.3l-16.4-1.2M1120.2 247.9l-59.1-4.1M959.8 239l-1.3 0M958.4 223.8v15.2M733.9 233.9v23.9M961.2 201.4v67.1M958 240.7v12.3M846.3 253.9v-19.2M639.1 187.9v40.4M958.4 239v14M1128.9 171.2v-68.6M922.5 131.4v56.7M737.8 176.5v46.1M992.5 268.5h0.2M994.4 268.5h0.1M993.3 268.5h0.1M992.4 268.5h0.1M995.9 268.5h0.1M919.4 268.5v15.7M744.2 268.5v15.8M903.8 258.7v9.8M797.3 258.5v10M668 257.1v11.4M1149.2 247l17.5-0.5M862.9 253.7l63.7 0.1M545 248.9l119.5 2.6M664.5 251.5l18.3 0.5M772.1 254.5l9.3 0.3M1149.2 247v7.7M926.6 253.8v5M862.9 253.7v4.9M781.4 254.7v3.6M664.5 251.5v5.5M993.8 268.5l0.5 0M802.9 241.3l7.8-1.2M957.8 236.6l-84.7-5.9M682.8 252v5.2M772.1 240v2.3M959.8 268.5v-9.5M1061.1 257.1v11.4M958 240.5l0 0.2M957.8 236.6v-7M957.8 229.6v-1.8M992.9 268.5h0.2M993.3 268.5h0.1M995.6 268.5h0.1M995.7 268.5h0.2M744.2 268.5h53M545 268.5l123 0M668 268.5l76.2 0M1061.1 257.1l88.1-2.5M1149.2 254.7l17.5-0.5M903.8 258.7l22.8 0.1M926.6 258.8l33.2 0.2M797.3 258.5l65.6 0.1M862.9 258.6l40.9 0.1M668 257.1l14.7 0.2M545 254.7l119.5 2.3M664.5 257l3.5 0.1M1061.1 249.8l16.4-0.5M926.6 253.8l31.4-0.9M810.7 240.1l35.6-5.4M682.8 236.2v2.9M682.8 239.1v13M772.1 242.2v12.2M772.1 254.5v3.8M959.8 259v-6.1M1061.1 249.8v7.3M993.5 268.5h0.1M993.4 268.5h0.1M993.5 268.5h0.1M797.3 268.5h106.5M903.8 268.5h15.6M682.8 257.2l51.1 0.6M1077.5 249.3l42.7-1.4M1120.2 247.9l29-0.9M958 253l0.4 0M958.4 252.9l1.3 0M781.4 254.7l50.4-0.6M831.9 254.1l8.1-0.1M839.9 254l6.3-0.1M846.3 253.9l16.6-0.2M993.1 268.5h0.2M959.8 252.9v-14M1061.1 248.1v1.7M919.4 268.5l40.3 0M959.8 268.5l1.4 0M733.9 257.8l38.2 0.4M857.3 233l15.8-2.4M873.1 230.7l60.5-9.1M959.8 239v-15.2M1061.1 243.8v4.3M1061.1 268.5l105.6 0M772.1 258.3l9.3 0.1M781.4 258.4l15.8 0.2M959.8 223.7v-3.5M959.8 220.3v-4.5M1061.1 194.9v20.6M1061.1 215.4v28.4M992.4 268.5l-31.2 0M857.3 233l-11 1.7M992.9 268.5h-0.2M995.1 268.5h-0.2M995.1 268.5h0.5M994.9 268.5h-0.4M993.7 268.5l0.1 0M993.6 268.5h0.1M996 268.5l65.1 0M993.4 268.5h0.2M993.7 268.5h0.9M996 268.5h1M958 236.6l-0.2 0"/><polygon opacity="0.3" fill-rule="evenodd" clip-rule="evenodd" fill="#5B91B7" stroke="#AFAFAF" stroke-miterlimit="10" points=" 452.6 236.2 418.3 233.9 418.3 257.8 452.6 257.2 452.6 252 452.6 239.1 452.6 236.2 "/><polygon opacity="0.3" fill-rule="evenodd" clip-rule="evenodd" fill="#A1A3A6" stroke="#AFAFAF" stroke-miterlimit="10" points=" 418.3 233.9 452.6 236.2 452.6 239.1 481.8 234.3 415.7 229.5 372.1 241.3 392.7 242.2 392.7 240 418.3 233.9 "/><polygon opacity="0.3" fill-rule="evenodd" clip-rule="evenodd" fill="#A1A3A6" stroke="#AFAFAF" stroke-miterlimit="10" points=" 392.7 242.2 372.1 241.3 352.7 254.1 386.5 254.7 392.7 254.5 392.7 242.2 "/><polygon opacity="0.3" fill-rule="evenodd" clip-rule="evenodd" fill="#83CBEB" stroke="#AFAFAF" stroke-miterlimit="10" points=" 384.9 256.4 359.3 262.4 359.3 264.7 359.3 276.9 359.3 280.7 384.9 280.2 384.9 256.4 "/><polygon opacity="0.3" fill-rule="evenodd" clip-rule="evenodd" fill="#EDEDEE" stroke="#AFAFAF" stroke-miterlimit="10" points=" 352.7 254.1 372.1 241.3 366.9 240.1 347.2 254 352.7 254.1 "/><polygon opacity="0.3" fill-rule="evenodd" clip-rule="evenodd" fill="#83CBEB" stroke="#AFAFAF" stroke-miterlimit="10" points=" 347.2 254 366.9 240.1 343 234.7 343 253.9 347.2 254 "/><polygon opacity="0.3" fill-rule="evenodd" clip-rule="evenodd" fill="#A1A3A6" stroke="#AFAFAF" stroke-miterlimit="10" points=" 215.7 241.4 239.5 246.8 244.7 248 288.4 236.2 164.6 203.4 157.1 228.2 197.7 237.4 208.3 239.8 215.7 241.4 "/><polygon opacity="0.3" fill-rule="evenodd" clip-rule="evenodd" fill="#A1A3A6" stroke="#AFAFAF" stroke-miterlimit="10" points=" 335.6 233 325 230.7 268.3 236.6 268.3 229.6 268.3 227.8 268.1 224.9 267.8 223.8 267.8 239 267.8 252.9 268.1 253 268.1 240.7 268.1 240.5 335.6 233 "/><polygon opacity="0.3" fill-rule="evenodd" clip-rule="evenodd" fill="#FFFFFF" stroke="#AFAFAF" stroke-miterlimit="10" points=" 267.8 223.8 268.1 224.9 280 225.7 284.5 221.5 266.9 220.3 266.9 223.7 267.8 223.8 "/><polygon opacity="0.3" fill-rule="evenodd" clip-rule="evenodd" fill="#5B91B7" stroke="#AFAFAF" stroke-miterlimit="10" points=" 267.8 223.8 266.9 223.7 266.9 239 267.8 239 267.8 223.8 "/><polygon opacity="0.3" fill-rule="evenodd" clip-rule="evenodd" fill="#A1A3A6" stroke="#AFAFAF" stroke-miterlimit="10" points=" 415.7 229.5 481.8 234.3 481.8 228.3 415.7 222.6 415.7 229.5 "/><polygon opacity="0.3" fill-rule="evenodd" clip-rule="evenodd" fill="#A1A3A6" stroke="#AFAFAF" stroke-miterlimit="10" points=" 415.7 229.5 415.7 222.6 291.9 188.1 291.9 196.7 415.7 229.5 "/><polygon opacity="0.3" fill-rule="evenodd" clip-rule="evenodd" fill="#A1A3A6" stroke="#AFAFAF" stroke-miterlimit="10" points=" 291.9 196.7 291.9 188.1 222.8 170.2 153.6 181.5 291.9 196.7 "/><polygon opacity="0.3" fill-rule="evenodd" clip-rule="evenodd" fill="#5B91B7" stroke="#AFAFAF" stroke-miterlimit="10" points=" 448.8 239.2 514.9 244.8 514.9 204.4 448.8 193.1 448.8 239.2 "/><polygon opacity="0.3" fill-rule="evenodd" clip-rule="evenodd" fill="#FFFFFF" stroke="#AFAFAF" stroke-miterlimit="10" points=" 280 225.7 268.1 224.9 268.3 227.8 268.3 229.6 279 230.2 280 225.7 "/><polygon opacity="0.3" fill-rule="evenodd" clip-rule="evenodd" fill="#5B91B7" stroke="#AFAFAF" stroke-miterlimit="10" points=" 310.8 168.5 434.6 203 434.6 156.9 310.8 111.8 310.8 168.5 "/><polygon opacity="0.3" fill-rule="evenodd" clip-rule="evenodd" fill="#A1A3A6" stroke="#AFAFAF" stroke-miterlimit="10" points=" 266.9 220.3 284.5 221.5 291.9 196.7 153.6 181.5 199.1 215.4 199.1 194.9 266 201.4 266.9 215.8 266.9 220.3 "/><polygon opacity="0.3" fill-rule="evenodd" clip-rule="evenodd" fill="#83CBEB" stroke="#AFAFAF" stroke-miterlimit="10" points=" 266.9 215.8 266 201.4 266 268.5 266.9 268.5 266.9 259 266.9 252.9 266.9 239 266.9 223.7 266.9 220.3 266.9 215.8 "/><polygon opacity="0.3" fill-rule="evenodd" clip-rule="evenodd" fill="#5B91B7" stroke="#AFAFAF" stroke-miterlimit="10" points=" 266.9 239 266.9 252.9 267.8 252.9 267.8 239 266.9 239 "/><polygon opacity="0.3" fill-rule="evenodd" clip-rule="evenodd" fill="#5B91B7" stroke="#AFAFAF" stroke-miterlimit="10" points=" 266 201.4 199.1 194.9 199.1 215.4 199.1 243.8 199.1 248.1 199.1 249.8 199.1 257.1 199.1 268.5 242.7 268.5 242.8 268.5 242.9 268.5 242.9 268.5 243.3 268.5 243.4 268.5 243.7 268.5 243.7 268.5 243.8 268.5 244.1 268.5 244.2 268.5 244.3 268.5 244.3 268.5 244.4 268.5 244.4 268.5 244.5 268.5 244.5 268.5 244.6 268.5 244.7 268.5 244.9 268.5 245 268.5 245.1 268.5 266 268.5 266 201.4 "/><polygon opacity="0.3" fill-rule="evenodd" clip-rule="evenodd" fill="#A5B03F" stroke="#AFAFAF" stroke-miterlimit="10" points=" 186.6 269.5 186.3 269.5 186.2 269.5 186.1 269.5 185.9 269.5 185.8 269.5 185.4 269.5 185.4 269.5 185.2 269.5 185.1 269.5 141.5 269.5 70.8 269.5 70.8 294.1 236.5 285.2 236.5 269.5 209.4 269.5 208.5 269.5 187.5 269.5 187.5 269.5 187.3 269.5 187.2 269.5 187.1 269.5 187 269.5 186.9 269.5 186.9 269.5 186.8 269.5 186.8 269.5 186.8 269.5 186.7 269.5 186.6 269.5 "/><g opacity="0.3"><polygon fill-rule="evenodd" clip-rule="evenodd" fill="#28C2E5" stroke="#AFAFAF" stroke-miterlimit="10" points=" 930.8 284.2 739.5 284.2 521.9 287.7 521.9 350 1200.8 350 1200.8 287.1 "/><polygon fill-rule="evenodd" clip-rule="evenodd" fill="#28C2E5" stroke="#AFAFAF" stroke-miterlimit="10" points=" 207.6 284.2 0 287.1 0 350 521.9 350 521.9 287.7 354.6 284.2 "/></g><polygon opacity="0.3" fill-rule="evenodd" clip-rule="evenodd" fill="#A5B03F" stroke="#AFAFAF" stroke-miterlimit="10" points=" 294 284.2 411.4 284.3 411.4 268.5 375.9 268.5 304.5 268.5 294 268.5 294 284.2 "/><polygon opacity="0.3" fill-rule="evenodd" clip-rule="evenodd" fill="#DAE241" stroke="#AFAFAF" stroke-miterlimit="10" points=" 411.4 284.3 544.9 295.1 544.9 268.5 462.4 268.5 411.4 268.5 411.4 284.3 "/><polygon opacity="0.3" fill-rule="evenodd" clip-rule="evenodd" fill="#5B91B7" stroke="#AFAFAF" stroke-miterlimit="10" points=" 176.6 176.4 245.7 194.3 245.7 137.6 176.6 105 176.6 176.4 "/><polygon opacity="0.3" fill-rule="evenodd" clip-rule="evenodd" fill="#C2C93C" stroke="#AFAFAF" stroke-miterlimit="10" points=" 477.3 228.1 451.7 228.5 445.5 228.6 434.8 228.8 434.8 238.8 470.4 238.8 521.4 238.8 521.4 227.3 511.6 227.5 477.3 228.1 "/><polygon opacity="0.3" fill-rule="evenodd" clip-rule="evenodd" fill="#B0B93C" stroke="#AFAFAF" stroke-miterlimit="10" points=" 266.9 268.5 294 268.5 304.5 268.5 304.5 258.7 289.2 258.8 266.9 259 266.9 268.5 "/><polygon opacity="0.3" fill-rule="evenodd" clip-rule="evenodd" fill="#D1D742" stroke="#AFAFAF" stroke-miterlimit="10" points=" 386.5 258.4 392.7 258.3 392.7 254.5 386.5 254.7 386.5 258.4 "/><polygon opacity="0.3" fill-rule="evenodd" clip-rule="evenodd" fill="#D3DA41" stroke="#AFAFAF" stroke-miterlimit="10" points=" 462.4 268.5 544.9 268.5 544.9 254.7 464.8 257 462.4 257.1 462.4 268.5 "/><polygon opacity="0.3" fill-rule="evenodd" clip-rule="evenodd" fill="#5B91B7" stroke="#AFAFAF" stroke-miterlimit="10" points=" 343 234.7 335.6 233 268.1 240.5 268.1 240.7 268.1 253 289.2 253.8 331.9 253.7 343 253.9 343 234.7 "/><polygon opacity="0.3" fill-rule="evenodd" clip-rule="evenodd" fill="#A5B03F" stroke="#AFAFAF" stroke-miterlimit="10" points=" 289.2 258.8 304.5 258.7 331.9 258.6 331.9 253.7 289.2 253.8 289.2 258.8 "/><polygon opacity="0.3" fill-rule="evenodd" clip-rule="evenodd" fill="#D1D742" stroke="#AFAFAF" stroke-miterlimit="10" points=" 452.6 257.2 462.4 257.1 464.8 257 464.8 251.5 452.6 252 452.6 257.2 "/><polygon opacity="0.3" fill-rule="evenodd" clip-rule="evenodd" fill="#CAD13F" stroke="#AFAFAF" stroke-miterlimit="10" points=" 464.8 257 544.9 254.7 544.9 248.9 464.8 251.5 464.8 257 "/><polygon opacity="0.3" fill-rule="evenodd" clip-rule="evenodd" fill="#A5B03F" stroke="#AFAFAF" stroke-miterlimit="10" points=" 304.5 258.7 304.5 268.5 375.9 268.5 375.9 258.5 331.9 258.6 304.5 258.7 "/><polygon opacity="0.3" fill-rule="evenodd" clip-rule="evenodd" fill="#A5B03F" stroke="#AFAFAF" stroke-miterlimit="10" points=" 331.9 258.6 375.9 258.5 386.5 258.4 386.5 254.7 352.7 254.1 347.2 254 343 253.9 331.9 253.7 331.9 258.6 "/><polygon opacity="0.3" fill-rule="evenodd" clip-rule="evenodd" fill="#A5B03F" stroke="#AFAFAF" stroke-miterlimit="10" points=" 140 247 128.3 246.5 128.3 254.2 140 254.7 140 247 "/><polygon opacity="0.3" fill-rule="evenodd" clip-rule="evenodd" fill="#A5B03F" stroke="#AFAFAF" stroke-miterlimit="10" points=" 289.2 253.8 268.1 253 267.8 252.9 266.9 252.9 266.9 259 289.2 258.8 289.2 253.8 "/><polygon opacity="0.3" fill-rule="evenodd" clip-rule="evenodd" fill="#A5B03F" stroke="#AFAFAF" stroke-miterlimit="10" points=" 140 247 140 254.7 199.1 257.1 199.1 249.8 188.1 249.3 159.5 247.9 140 247 "/><polygon opacity="0.3" fill-rule="evenodd" clip-rule="evenodd" fill="#A5B03F" stroke="#AFAFAF" stroke-miterlimit="10" points=" 175.4 234.2 116.3 231.7 104.6 231.2 104.6 245.5 175.4 245.5 175.4 234.2 "/><polygon opacity="0.3" fill-rule="evenodd" clip-rule="evenodd" fill="#5B91B7" stroke="#AFAFAF" stroke-miterlimit="10" points=" 188.1 249.3 199.1 249.8 199.1 248.1 188.1 249.3 "/><polygon opacity="0.3" fill-rule="evenodd" clip-rule="evenodd" fill="#A1A3A6" stroke="#AFAFAF" stroke-miterlimit="10" points=" 159.5 247.9 188.1 249.3 199.1 248.1 199.1 243.8 159.5 247.9 "/><polygon opacity="0.3" fill-rule="evenodd" clip-rule="evenodd" fill="#A1A3A6" stroke="#AFAFAF" stroke-miterlimit="10" points=" 415.7 176.5 481.8 187.9 481.8 181.8 415.7 169.6 415.7 176.5 "/><polygon opacity="0.3" fill-rule="evenodd" clip-rule="evenodd" fill="#A1A3A6" stroke="#AFAFAF" stroke-miterlimit="10" points=" 415.7 176.5 415.7 169.6 291.9 122.8 291.9 131.4 415.7 176.5 "/><polygon opacity="0.3" fill-rule="evenodd" clip-rule="evenodd" fill="#A1A3A6" stroke="#AFAFAF" stroke-miterlimit="10" points=" 222.8 98.9 291.9 131.4 291.9 122.8 222.8 88.1 222.8 98.9 "/><path opacity="0.3" fill="none" stroke="#AFAFAF" stroke-width="0.4" stroke-miterlimit="10" d="M544.9 295.1l-133.5-10.8M411.4 284.3l-117.4-0.2M294 284.2l-165.7 9M243.8 268.5h-0.1M366.9 240.1l-19.6 13.9M352.7 254.1l19.4-12.9M372.1 241.3l20.6 1M481.8 228.3l-66.1-5.7M372.1 241.3l43.6-11.8M481.8 234.3l-29.3 4.8M415.7 229.5l66.1 4.8M481.8 234.3v-6.1M415.7 222.6v6.9M284.5 221.5l-4.4 4.2M280 225.7l-11.9-0.8M266.9 220.3l17.5 1.2M415.7 222.6l-123.8-34.5M284.5 221.5l7.4-24.9M291.9 196.7l123.8 32.8M291.9 188.1v8.6M279 230.2l-10.8-0.6M280 225.7l-1 4.5M291.9 188.1L222.8 170.2M199.1 215.4l-45.5-33.9M153.6 181.5l138.3 15.1M153.6 181.5l69.2-11.3M415.7 176.5l66.1 11.4M415.7 169.6v6.9M415.7 169.6l66.1 12.2M481.8 181.8v6.1M222.8 98.9l69.2 32.5M222.8 98.9v-10.8M222.8 88.1l69.2 34.7M291.9 122.8v8.6M291.9 131.4l123.8 45.1M291.9 122.8l123.8 46.7M268.1 240.5l67.5-7.4M188.1 249.3l11-1.2M159.5 247.9l39.6-4.1M266.9 239l0.9 0M267.8 223.8v15.2M418.3 233.9v23.9M266 201.4v67.1M268.1 240.7v12.3M343 253.9v-19.2M481.8 187.9v40.4M267.8 239v14M153.6 181.5l69.2-82.7M291.9 131.4v56.7M415.7 176.5v46.1M245 268.5h-0.1M243.7 268.5h-0.1M244.5 268.5h0M245.1 268.5h-0.1M242.8 268.5h-0.1M294 268.5v15.7M411.4 268.5v15.8M304.5 258.7v9.8M375.9 258.5v10M462.4 257.1v11.4M140 247l-11.7-0.5M331.9 253.7l-42.7 0.1M544.9 248.9l-80.1 2.6M464.8 251.5l-12.2 0.5M392.7 254.5l-6.3 0.3M140 247v7.7M289.2 253.8v5M331.9 253.7v4.9M386.5 254.7v3.6M464.8 251.5v5.5M244.1 268.5l-0.3 0M372.1 241.3l-5.2-1.2M268.3 236.6l56.8-5.9M452.6 252v5.2M392.7 240v2.3M266.9 268.5v-9.5M199.1 257.1v11.4M268.1 240.5l0 0.2M268.3 236.6v-7M268.3 229.6v-1.8M244.7 268.5h-0.1M244.5 268.5h0M242.9 268.5h0M242.9 268.5h-0.1M411.4 268.5h-35.5M544.9 268.5l-82.5 0M462.4 268.5l-51.1 0M199.1 257.1l-59.1-2.5M140 254.7l-11.7-0.5M304.5 258.7l-15.3 0.1M289.2 258.8l-22.2 0.2M375.9 258.5l-44 0.1M331.9 258.6l-27.4 0.1M462.4 257.1l-9.9 0.2M544.9 254.7l-80.1 2.3M464.8 257l-2.4 0.1M199.1 249.8l-11-0.5M289.2 253.8l-21.1-0.9M366.9 240.1l-23.9-5.4M452.6 236.2v2.9M452.6 239.1v13M392.7 242.2v12.2M392.7 254.5v3.8M266.9 259v-6.1M199.1 249.8v7.3M244.3 268.5H244.3M244.4 268.5h0M244.4 268.5h0M427.9 203.4h-71.4M304.5 268.5h-10.5M452.6 257.2l-34.2 0.6M188.1 249.3l-28.6-1.4M159.5 247.9l-19.5-0.9M268.1 253l-0.3 0M267.8 252.9l-0.9 0M386.5 254.7l-33.8-0.6M352.7 254.1l-5.4-0.1M347.2 254l-4.2-0.1M343 253.9l-11.1-0.2M244.6 268.5h-0.1M266.9 252.9v-14M199.1 248.1v1.7M294 268.5l-27 0M266.9 268.5l-0.9 0M418.3 257.8l-25.6 0.4M335.6 233l-10.6-2.4M325 230.7l-40.6-9.1M266.9 239v-15.2M199.1 243.8v4.3M199.1 268.5l-70.8 0M392.7 258.3l-6.3 0.1M386.5 258.4l-10.6 0.2M266.9 223.7v-3.5M266.9 220.3v-4.5M199.1 194.9v20.6M199.1 215.4v28.4M245.1 268.5l20.9 0M335.6 233l7.4 1.7M244.7 268.5h0.1M243.3 268.5h0.1M243.3 268.5h-0.3M243.4 268.5h0.3M244.2 268.5l-0.1 0M244.3 268.5h-0.1M242.7 268.5l-43.6 0M244.4 268.5H244.3M244.2 268.5h-0.6M242.7 268.5h-0.6M268.1 236.6l0.2 0"/></svg>