<?xml version="1.0" encoding="UTF-8"?>
<!-- Generator: Adobe Illustrator 15.1.0, SVG Export Plug-In . SVG Version: 6.00 Build 0)  -->
<!DOCTYPE svg PUBLIC "-//W3C//DTD SVG 1.1//EN" "http://www.w3.org/Graphics/SVG/1.1/DTD/svg11.dtd">
<svg version="1.1" id="Layer_2" xmlns="http://www.w3.org/2000/svg" xmlns:xlink="http://www.w3.org/1999/xlink" x="0px" y="0px" width="1200.5px" height="348.582px" viewBox="0 0 1200.5 348.582" enable-background="new 0 0 1200.5 348.582" xml:space="preserve"><script xmlns=""/>
<path opacity="0.31" fill="#603813" stroke="#DDB38A" stroke-miterlimit="10" enable-background="new    " d="M607.667,292.683  c0,0,10,1.668,12-25.021s-6-123.708-6-123.708l0.161-55.182c0,0,3.839-55.713-6.161-65.499c-10-9.786,0-34.591,0-40.591h28  c0,0-3,24.342,0,30.569c0,0,11,14.173,12,47.087c1,32.915,7,16.872,0,37.333c0,0-0.309,44.464,3.346,48.912  c3.655,4.448,8.347,11.557,0,41.803c0,0,13.667,56.932,4.661,72.943c0,0,3.994,25.795,26.994,25.795c0,0-23-0.001-22,12.453  c0,0-13.444,7.115-17.722-0.001c-4.278-7.117-9.279-6.226-13.279-7.117l-14,2.67C615.667,295.129,607.667,300.913,607.667,292.683z"/>
<path opacity="0.31" fill="#603813" stroke="#DDB38A" stroke-miterlimit="10" enable-background="new    " d="M1041.537,306.871  c0,0,15.23-1.248,13.23-49.47s-10.518-26.587,0.299-62.179c0,0-6.759,0.688,0.059-23.424c6.816-24.11,0.029-5.784,0.029-5.784  s-4.955-10.356-5.062-21.837c-0.104-11.481,10.327-17.233,8.114-20.677s2.834,0.809,0.312-8.376  c-2.521-9.185,0.727-27.558,0.727-27.558s3.002-24.113-8.621-22.964C1039,65.749,1024,72.636,1024,72.636l-10-8.076l-35.027-25.219  L904.5-1.992v-2.296l31.496,13.983L934-10.5h10l0.277,15.448c0,0,5.723,10.308,13.723,14.9c8,4.592,24.047,13.764,24.047,13.764  L1009,39.347l18,14.922l19.953-6.89l12.547,3.442v-55.11l27-0.574v40.759L1138-4.5h18c0,0-37,38.281-40,37.133  c-3-1.147-16,5.65-18,11.391c-2,5.741-8,5.696-8,11.437c0,5.74-6,41.311,3,49.348s-8,18.692-7,23.285c1,4.593,5,8.031,5,12.624  c0,4.593,0,19.516-1,28.701c-1,9.186,0,18.37-2,36.741c-2,18.368,0,3.812,3,18.738c3,14.926,7,47.705,7,47.705l18,33.898h-8  c0,0-8,7.863-20,0.258s-22,13.201-25,3.4C1060,300.356,1048.073,315.625,1041.537,306.871z"/>
<path opacity="0.31" fill="#603813" stroke="#DDB38A" stroke-miterlimit="10" enable-background="new    " d="M833.226,285.658  c0,0-6.931,1.59-8.314-23.84c-1.388-25.43,4.157-117.872,4.157-117.872l-0.111-52.579c0,0-2.661-53.134,4.27-62.458  c6.931-9.324,0-32.71,0-38.725h-19.404c0,0,2.08,23.242,0,29.175c0,0-7.623,13.528-8.315,44.89s-4.851,16.088,0,35.584  c0,0,0.214,42.373-2.318,46.61c-2.531,4.238-5.783,11.015,0,39.834c0,0-9.472,54.246-3.229,69.504c0,0-2.767,24.578-18.707,24.578  c0,0,15.94,0,15.247,11.867c0,0,9.316,6.779,12.281-0.002s6.43-5.932,9.201-6.781l9.702,2.545  C827.681,287.99,833.226,293.498,833.226,285.658z"/>
<path opacity="0.31" fill="#603813" stroke="#DDB38A" stroke-miterlimit="10" enable-background="new    " d="M397.861,295.524  c0,0-8.797-6.816-7.643-52.169s6.074-9.017-0.174-42.49c0,0,3.904-16.282-0.033-38.958c-3.936-22.676-0.017-5.441-0.017-5.441  s2.862-9.74,2.924-20.538s-5.965-16.208-4.687-19.447c1.277-3.24-1.637-8.644-0.182-17.283c1.457-8.639-0.418-12.751-0.418-12.751  s-1.734-22.678,4.979-21.598c6.714,1.08,14.137-1.605,14.137-1.605l8-4.175l19.367-17.928L521.25-5.784h-8l-63,33.867l13.5-33.867  h-9.553l-0.16,14.528c0,0-3.307,9.694-7.926,14.014c-4.62,4.319-13.891,12.945-13.891,12.945L418.75,49.796l-12.492,5.336  l-12.008-1.629l-7-6.497V0.058l-16-0.54v38.333L313.75,0.15l-12.5-2.319c0,0,36.767,32.627,38.5,31.547  c1.732-1.079,20.345,13.158,21.5,18.557c1.154,5.399,8.62,2.896,8.62,8.295c0,5.398,2.578,37.033-2.62,44.592  s5.509,15.653,4.93,19.973c-0.576,4.319-2.887,7.556-2.887,11.875c0,4.319,0,18.356,0.577,26.994  c0.578,8.639-6.774,17.417-5.62,34.694s-2.268,6.623-4,20.662c-1.732,14.037,5,48.324,5,48.324l-19.5,32.861l13.725-0.928  c0,0,2.106,7.757,12.275,5.887c13.714-2.523,11.982,6.693,13.714-2.523C387.197,289.422,394.087,303.756,397.861,295.524z"/>
<path opacity="0.31" fill="#603813" stroke="#DDB38A" stroke-miterlimit="10" enable-background="new    " d="M281.714,287.228  c0,0-7.029,1.607-8.434-24.123c-1.407-25.729,4.216-119.27,4.216-119.27l-0.113-53.203c0,0-2.699-53.639,4.33-63.073  c7.028-9.434,0-33.059,0-39.059h-19.68c0,0,2.109,23.393,0,29.396c0,0-7.731,13.626-8.434,45.36c-0.704,31.734-4.92,16.248,0,35.974  c0,0,0.217,42.859-2.352,47.147c-2.568,4.289-5.865,11.138,0,40.298c0,0-9.605,54.886-3.276,70.324c0,0-2.806,24.869-18.972,24.869  c0,0,16.167-0.002,15.463,12.006c0,0,9.449,6.86,12.457,0c3.006-6.861,6.52-6.006,9.332-6.862l9.839,2.573  C276.09,289.585,281.714,295.162,281.714,287.228z"/>
<path opacity="0.31" fill="#603813" stroke="#DDB38A" stroke-miterlimit="10" enable-background="new    " d="M84.477,285.545  c0,0,4.463,2.455,3.079-22.975c-1.388-25.43-7.237-118.737-7.237-118.737L71,91.571c0,0,6.545-53.452,13.477-62.775  c6.93-9.324,0-32.71,0-38.725H65.07c0,0,2.08,23.242,0,29.175c0,0-7.623,13.528-8.315,44.89s-4.851,16.088,0,35.584  c0,0,0.214,42.373-2.319,46.61c-2.53,4.238-5.782,11.015,0,39.834c0,0-9.471,54.246-3.229,69.503c0,0-2.768,24.579-18.707,24.579  c0,0,4.194-0.619,3.501,11.248c0,0,18.583-4.396,24.027,0.617c4.973,4.58,10.2,5.429,12.973,4.58l5.931-8.817  C78.931,287.876,84.477,293.385,84.477,285.545z"/>
</svg>