<?xml version="1.0" encoding="UTF-8"?>
<!-- Generator: Adobe Illustrator 15.1.0, SVG Export Plug-In . SVG Version: 6.00 Build 0)  -->
<!DOCTYPE svg PUBLIC "-//W3C//DTD SVG 1.1//EN" "http://www.w3.org/Graphics/SVG/1.1/DTD/svg11.dtd">
<svg version="1.1" id="Layer_4" xmlns="http://www.w3.org/2000/svg" xmlns:xlink="http://www.w3.org/1999/xlink" x="0px" y="0px" width="1203px" height="348.581px" viewBox="0 0 1203 348.581" enable-background="new 0 0 1203 348.581" xml:space="preserve"><script xmlns=""/>
<polygon opacity="0.86" fill="none" stroke="#E56B4E" stroke-miterlimit="10" points="907.5,200.5 907.5,182 894.5,174.291   894.5,200.5 "/>
<polyline opacity="0.86" fill="none" stroke="#E56B4E" stroke-miterlimit="10" points="882.5,201 882.5,168 852.5,163.224   852.5,205.5 882,205.5 846.5,205.5 846.5,145 795.5,119 795.5,206.5 839,206.5 772.5,212 772.5,124 789,125 "/>
<polyline opacity="0.86" fill="none" stroke="#E56B4E" stroke-miterlimit="10" points="766.5,119 747.5,111 747.5,216 766.5,212 "/>
<polyline opacity="0.86" fill="none" stroke="#E56B4E" stroke-miterlimit="10" points="741,111.5 645.5,119 645.5,212 741.5,216.5   639.5,216.5 639.5,111 399.121,59.308 398,224.25 634,216.5 323.5,216.5 323.5,89 405,57 "/>
<polyline opacity="0.86" fill="none" stroke="#E56B4E" stroke-miterlimit="10" points="323.5,93 323.5,77 404.396,41.148 411.5,38   411.5,66 635.5,114 635.5,100 416,38 305,9 "/>
<polygon opacity="0.86" fill="none" stroke="#E56B4E" stroke-miterlimit="10" points="323.5,9 323.5,57 226.5,102 226.5,70 "/>
<polygon opacity="0.86" fill="none" stroke="#E56B4E" stroke-miterlimit="10" points="226.25,111.25 222,224.5 314.5,224.5   314.5,72 "/>
<rect x="999.5" y="82.5" opacity="0.86" fill="none" stroke="#E56B4E" stroke-miterlimit="10" width="168" height="69"/>
<polygon opacity="0.86" fill="none" stroke="#E56B4E" stroke-miterlimit="10" points="986.75,140.5 990.625,224.188 1137.5,216   1137.5,187 1173,182.289 1167.5,151.5 993,151.5 990,140.5 "/>
<polygon opacity="0.86" fill="none" stroke="#E56B4E" stroke-miterlimit="10" points="1164,-31.5 1167.518,232.5 1190.965,232.5   1188.62,-31.5 "/>
<polyline opacity="0.86" fill="none" stroke="#E56B4E" stroke-miterlimit="10" points="32.76,214.057 29,42 93,31 95.5,236.672   3.5,241.043 48,232.5 32.578,226.256 41.049,222.611 33.079,118.041 154.797,90.714 159.181,220.426 43.321,208.087 "/>
<polygon opacity="0.86" fill="none" stroke="#E56B4E" stroke-miterlimit="10" points="159.192,92.171 164.293,218.969   268.5,208.174 259.755,122.777 "/>
<path fill="none" stroke="#DBA463" stroke-miterlimit="10" d="M1387-156"/>
</svg>